<?xml version="1.0" encoding="iso-8859-1"?>
<!-- Generator: Adobe Illustrator 18.1.1, SVG Export Plug-In . SVG Version: 6.00 Build 0)  -->
<svg version="1.1" id="Capa_1" xmlns="http://www.w3.org/2000/svg" xmlns:xlink="http://www.w3.org/1999/xlink" x="0px" y="0px"
	 viewBox="0 0 30.462 30.462" style="enable-background:new 0 0 30.462 30.462;" xml:space="preserve">
<g>
	<path style="fill:#010002;" d="M29.362,1.425H1.078C0.467,1.425,0,1.951,0,2.565v22.483c0,0.613,0.467,1.139,1.078,1.139h8.987
		v0.926c0,1.052,0.849,1.924,1.901,1.924h6.691c1.051,0,1.918-0.872,1.918-1.924v-0.926h8.787c0.611,0,1.1-0.524,1.1-1.139V2.565
		C30.461,1.951,29.973,1.425,29.362,1.425z M15.386,24.532c-0.748,0-1.354-0.604-1.354-1.354c0-0.745,0.606-1.354,1.354-1.354
		c0.75,0,1.354,0.607,1.354,1.354C16.741,23.928,16.136,24.532,15.386,24.532z M27.756,19.213H2.705V3.856h25.051V19.213z"/>
</g>
<g>
</g>
<g>
</g>
<g>
</g>
<g>
</g>
<g>
</g>
<g>
</g>
<g>
</g>
<g>
</g>
<g>
</g>
<g>
</g>
<g>
</g>
<g>
</g>
<g>
</g>
<g>
</g>
<g>
</g>
</svg>
