<?xml version="1.0" encoding="iso-8859-1"?>
<!-- Generator: Adobe Illustrator 18.1.1, SVG Export Plug-In . SVG Version: 6.00 Build 0)  -->
<svg version="1.1" id="Capa_1" xmlns="http://www.w3.org/2000/svg" xmlns:xlink="http://www.w3.org/1999/xlink" x="0px" y="0px"
	 viewBox="0 0 29.499 29.499" style="enable-background:new 0 0 29.499 29.499;" xml:space="preserve">
<g>
	<g>
		<path style="fill:#010002;" d="M27.83,18.794c-0.644-0.368-0.969-1.646-0.722-2.838c0,0,0,0,0-1.148
			c0-1.204-0.011-1.252-0.011-1.252c-0.265-1.219,0.057-2.524,0.713-2.9c0.656-0.375,0.687-1.568,0.067-2.651l-0.67-1.171
			c-0.619-1.084-1.67-1.661-2.335-1.283c-0.665,0.376-2.009,0.052-2.988-0.723l-2.109-1.213c-1.154-0.476-2.099-1.483-2.099-2.24
			S16.656,0,15.408,0h-1.313c-1.248,0-2.269,0.609-2.269,1.354c0,0.744-0.949,1.732-2.107,2.194l-2.208,1.21
			c-0.976,0.778-2.29,1.12-2.92,0.76C3.96,5.159,2.938,5.75,2.318,6.834L1.649,8.005c-0.62,1.083-0.623,2.258-0.009,2.609
			c0.615,0.352,0.897,1.637,0.625,2.854c0,0-0.022,0.104-0.022,1.339c0,1.179,0,1.184,0,1.184c0.259,1.22-0.022,2.5-0.626,2.845
			c-0.604,0.346-0.59,1.514,0.029,2.596l0.669,1.172c0.618,1.084,1.617,1.689,2.218,1.348c0.601-0.344,1.89,0.015,2.864,0.796
			l2.322,1.313c1.157,0.467,2.105,1.431,2.105,2.144c0,0.711,1.021,1.294,2.269,1.294h1.313c1.248,0,2.269-0.592,2.269-1.316
			s0.942-1.707,2.096-2.188l2.226-1.316c0.976-0.777,2.293-1.119,2.927-0.759c0.633,0.36,1.658-0.229,2.278-1.313l0.67-1.172
			C28.494,20.35,28.474,19.162,27.83,18.794z M14.63,22.734c-4.443,0-8.045-3.603-8.045-8.045s3.603-8.045,8.045-8.045
			c4.443,0,8.045,3.603,8.045,8.045C22.675,19.132,19.073,22.734,14.63,22.734z"/>
		<circle style="fill:#010002;" cx="14.711" cy="14.609" r="3.356"/>
	</g>
</g>
<g>
</g>
<g>
</g>
<g>
</g>
<g>
</g>
<g>
</g>
<g>
</g>
<g>
</g>
<g>
</g>
<g>
</g>
<g>
</g>
<g>
</g>
<g>
</g>
<g>
</g>
<g>
</g>
<g>
</g>
</svg>
