<svg xmlns="http://www.w3.org/2000/svg" xmlns:xlink="http://www.w3.org/1999/xlink" version="1.1" style="" xml:space="preserve" width="23.33099937438965" height="23.33099937438965"><rect id="backgroundrect" width="100%" height="100%" x="0" y="0" fill="none" stroke="none"/>
















<g class="currentLayer" style=""><title>Layer 1</title><g id="svg_1" class="" transform="rotate(45 11.66591835021973,11.747300148010256) ">
	<path style="fill:#fff;" d="M14.981772629059975,11.748341688334943 L19.9557915369646,6.773565238714218 c0.7295126726031307,-0.7295126726031307 0.7295126726031307,-1.9233984171748166 0,-2.6529110897779464 l-0.6628490015864378,-0.6628490015864378 c-0.7295126726031307,-0.7302702143192294 -1.9233984171748166,-0.7302702143192294 -2.6529110897779464,0 L11.666012537695591,8.432581596970559 L6.691236088074868,3.4578051473498346 c-0.7287551308870316,-0.7295126726031307 -1.922640875458718,-0.7295126726031307 -2.6521535480618477,0 L3.3754759967104837,4.120654148936271 c-0.7287551308870316,0.7295126726031307 -0.7287551308870316,1.9233984171748166 0,2.6529110897779464 l4.9740189079046235,4.9740189079046235 l-4.9740189079046235,4.974776449620724 c-0.7287551308870316,0.7295126726031307 -0.7287551308870316,1.9233984171748166 0,2.6521535480618477 l0.6636065433025363,0.6628490015864378 c0.7295126726031307,0.7295126726031307 1.9233984171748166,0.7295126726031307 2.6521535480618477,0 l4.974776449620724,-4.9732613661885265 l4.9740189079046235,4.9732613661885265 c0.7295126726031307,0.7295126726031307 1.9233984171748166,0.7295126726031307 2.6529110897779464,0 l0.6628490015864378,-0.6628490015864378 c0.7295126726031307,-0.7295126726031307 0.7295126726031307,-1.9233984171748166 0,-2.6521535480618477 L14.981772629059975,11.748341688334943 z" id="svg_2"/>
</g><g id="svg_3">
</g><g id="svg_4">
</g><g id="svg_5">
</g><g id="svg_6">
</g><g id="svg_7">
</g><g id="svg_8">
</g><g id="svg_9">
</g><g id="svg_10">
</g><g id="svg_11">
</g><g id="svg_12">
</g><g id="svg_13">
</g><g id="svg_14">
</g><g id="svg_15">
</g><g id="svg_16">
</g><g id="svg_17">
</g></g></svg>